<svg width="21" height="20" viewBox="0 0 21 20" fill="none" xmlns="http://www.w3.org/2000/svg">
<path d="M14.6171 2.5C15.7346 2.5 16.8096 2.94167 17.6005 3.73417C18.3921 4.525 18.8346 5.59167 18.8346 6.70833V13.2917C18.8346 15.6167 16.943 17.5 14.6171 17.5H6.38464C4.0588 17.5 2.16797 15.6167 2.16797 13.2917V6.70833C2.16797 4.38333 4.05047 2.5 6.38464 2.5H14.6171ZM15.5596 6.83333C15.3846 6.82417 15.218 6.88333 15.0921 7L11.3346 10C10.8513 10.4008 10.1588 10.4008 9.66797 10L5.91797 7C5.6588 6.80833 5.30047 6.83333 5.08464 7.05833C4.85964 7.28333 4.83464 7.64167 5.02547 7.89167L5.13464 8L8.9263 10.9583C9.39297 11.325 9.9588 11.525 10.5513 11.525C11.1421 11.525 11.718 11.325 12.1838 10.9583L15.943 7.95L16.0096 7.88333C16.2088 7.64167 16.2088 7.29167 16.0005 7.05C15.8846 6.92583 15.7255 6.85 15.5596 6.83333Z" fill="white"/>
</svg>
