<svg width="64" height="64" viewBox="0 0 64 64" fill="none" xmlns="http://www.w3.org/2000/svg">
<path d="M28.1481 8.22387C30.5317 6.84773 33.4683 6.84773 35.8519 8.22387L50.6648 16.7761C53.0483 18.1523 54.5167 20.6955 54.5167 23.4477V40.5523C54.5167 43.3045 53.0483 45.8477 50.6648 47.2239L35.8519 55.7761C33.4683 57.1523 30.5317 57.1523 28.1481 55.7761L13.3352 47.2239C10.9517 45.8477 9.48334 43.3045 9.48334 40.5523V23.4477C9.48334 20.6955 10.9517 18.1523 13.3352 16.7761L28.1481 8.22387Z" fill="white" fill-opacity="0.4"/>
<path d="M50.5245 36.8419C50.5245 35.9063 50.1352 35.0129 49.4503 34.3755C48.4775 33.4701 47.8284 32.8645 47.7657 32.8018C47.5665 32.6024 47.3489 32.401 47.1315 32.1835C46.1167 31.2063 45.0295 30.2454 43.761 29.4839C41.2241 27.9609 38.1798 28.6498 36.2047 31.2244C35.7517 31.8227 35.3349 32.4736 34.9181 33.1463L34.9095 33.1604C34.1334 34.4244 33.3917 35.6325 32.2544 36.2467C31.2215 36.8087 30.6054 36.5186 29.1376 35.5396C29.0803 35.5031 29.0224 35.4661 28.9641 35.4287C28.4137 35.0765 27.816 34.6941 27.1443 34.4155C23.502 32.8925 20.8745 36.1379 19.8779 37.3708C19.0811 38.3813 18.2661 39.3731 17.4346 40.3507C16.0429 41.9871 16.432 44.5019 18.2924 45.5759L29.4913 52.0417C31.0544 52.9441 32.9801 52.9441 34.5432 52.0417L47.9986 44.2732C49.5616 43.3707 50.5245 41.703 50.5245 39.8981V36.8419Z" fill="white"/>
<path d="M26.1104 28.8374C28.6564 28.8374 30.7784 26.7161 30.7784 24.1687C30.7784 21.6231 28.6564 19.5 26.1104 19.5C23.5663 19.5 21.4444 21.6231 21.4444 24.1687C21.4444 26.7161 23.5663 28.8374 26.1104 28.8374Z" fill="white"/>
</svg>
