<svg width="24" height="24" viewBox="0 0 24 24" fill="none" xmlns="http://www.w3.org/2000/svg">
<path opacity="0.4" d="M16.34 2H7.67C4.28 2 2 4.38 2 7.92V16.09C2 19.62 4.28 22 7.67 22H16.34C19.73 22 22 19.62 22 16.09V7.92C22 4.38 19.73 2 16.34 2Z" fill="white"/>
<path d="M15.9457 13.2168C15.773 13.3841 15.6937 13.6261 15.733 13.8635L16.3257 17.1435C16.3757 17.4215 16.2584 17.7028 16.0257 17.8635C15.7977 18.0301 15.4944 18.0501 15.2457 17.9168L12.293 16.3768C12.1904 16.3221 12.0764 16.2928 11.9597 16.2895H11.779C11.7164 16.2988 11.655 16.3188 11.599 16.3495L8.64571 17.8968C8.49971 17.9701 8.33438 17.9961 8.17238 17.9701C7.77771 17.8955 7.51438 17.5195 7.57905 17.1228L8.17238 13.8428C8.21171 13.6035 8.13238 13.3601 7.95971 13.1901L5.55238 10.8568C5.35105 10.6615 5.28105 10.3681 5.37305 10.1035C5.46238 9.83946 5.69038 9.64679 5.96571 9.60346L9.27905 9.12279C9.53105 9.09679 9.75238 8.94346 9.86571 8.71679L11.3257 5.72346C11.3604 5.65679 11.405 5.59546 11.459 5.54346L11.519 5.49679C11.5504 5.46213 11.5864 5.43346 11.6264 5.41013L11.699 5.38346L11.8124 5.33679H12.093C12.3437 5.36279 12.5644 5.51279 12.6797 5.73679L14.159 8.71679C14.2657 8.93479 14.473 9.08613 14.7124 9.12279L18.0257 9.60346C18.3057 9.64346 18.5397 9.83679 18.6324 10.1035C18.7197 10.3708 18.6444 10.6641 18.439 10.8568L15.9457 13.2168Z" fill="white"/>
</svg>
