<svg xmlns="http://www.w3.org/2000/svg" width="20" height="20" fill="none">
<path id="svg_1" fill="white" d="m13.75,12.5c0.6904,0 1.25,-0.5596 1.25,-1.25c0,-0.6904 -0.5596,-1.25 -1.25,-1.25c-0.6904,0 -1.25,0.5596 -1.25,1.25c0,0.6904 0.5596,1.25 1.25,1.25z"/>
<path id="svg_2" stroke-linejoin="round" stroke-linecap="round" stroke="white" d="m2.81252,5.3125l0,9.6875c0,0.3315 0.1317,0.6495 0.36612,0.8839c0.23442,0.2344 0.55236,0.3661 0.88388,0.3661l12.49998,0c0.1658,0 0.3248,-0.0658 0.442,-0.1831c0.1172,-0.1172 0.183,-0.2761 0.183,-0.4419l0,-8.125c0,-0.1658 -0.0658,-0.3247 -0.183,-0.4419c-0.1172,-0.1173 -0.2762,-0.1831 -0.442,-0.1831l-12.15003,0c-0.84724,0 -1.56883,-0.6588 -1.59893,-1.50552c-0.00765,-0.20985 0.02707,-0.41909 0.1021,-0.61522c0.07502,-0.19612 0.18881,-0.37511 0.33456,-0.52628c0.14575,-0.15117 0.32048,-0.2714 0.51374,-0.35353c0.19326,-0.08212 0.4011,-0.12445 0.61108,-0.12445l10.31248,0"/>
</svg>